<svg
  xmlns="http://www.w3.org/2000/svg"
  viewBox="0 0 2000 2000"
>
  <circle cx="1000" cy="1000" r="842" fill="#be393b" stroke="#be393b88" stroke-width="316"/>
  <path d="M1478.209 1362.542L521 637L158 1000c0 463.1 378.9 842 842 842z"  fill="#00000028"/>
  <g class="svg-image-icon-envelope">
    <polygon points="1165.024 1022.429 1164.341 1023.112 1147.59 1043.351 1423.229 1242.948 1165.024 1022.429 1165.024 1022.429" fill="#f7d7d2"/>
    <path d="M1488.83,653.255l-11.855-16.033-16.754,16.753-294.477,367.05-0.72,1.4,258.2,220.519,11.172,9.059,65.6,46.734a2.107,2.107,0,0,1,0-2.767V700.027c-0.691-10.5-4.178-25.812-11.17-46.771h0Z" fill="#f8deda"/>
    <path d="M995.466,1081.026c-18.838-2.045-37.685-11.824-55.84-29.3l-42.566-42.566-53.728,39.078L500,1297.377a117.653,117.653,0,0,0,.7,16.032c6.272,48.176,35.591,71.9,89.327,72.585h819.945c58.626,0,88.627-28.617,90.028-86.533v-0.72l-65.6-46.734-11.172-9.059-275.639-199.6-0.693.683-0.7,1.4v-0.683l-45.37-32.1-36.282,36.272a16.676,16.676,0,0,0-4.881,4.89,17.059,17.059,0,0,0-3.5,2.8c-2.785,2.806-5.572,4.89-7.665,6.975-1.393.72-2.094,0.72-2.795,1.4l-0.693.681c-0.7.72-.7,0.72-1.393,0.72a124.08,124.08,0,0,1-23.726,11.865c-4.188.72-8.378,1.4-11.863,2.045a73.653,73.653,0,0,1-12.566.72h0Z" fill="#fbe8e6"/>
    <polygon points="1146.196 1044.754 1146.196 1045.437 1146.897 1044.034 1147.59 1043.351 1164.341 1023.112 1165.024 1022.429 1165.744 1021.026 1165.024 1020.345 1125.956 987.521 1100.826 1012.65 1146.196 1044.754 1146.196 1044.754" fill="#efb0a7"/>
    <polygon points="1165.024 1020.345 1165.744 1021.026 1460.221 653.975 1125.956 987.521 1165.024 1020.345 1165.024 1020.345" fill="#f2c2bb"/>
    <polygon points="826.59 1026.636 842.641 1047.558 843.332 1048.241 897.07 1009.163 541.863 654.657 826.59 1026.636 826.59 1026.636" fill="#f2c2bb"/>
    <path d="M1463.708,626.04a85.406,85.406,0,0,0-22.325-8.376,89.438,89.438,0,0,0-31.411-3.487H590.028c-27.926-.683-49.548,5.61-64.208,18.838l-0.7.683v0.757l-1.393.683-0.7.681,18.838,18.838L897.07,1009.163l42.564,42.566c18.147,17.473,36.994,27.252,55.832,29.3a73.607,73.607,0,0,0,12.566-.72c3.485-.644,7.675-1.325,11.863-2.045a124.08,124.08,0,0,0,23.726-11.865c0.693,0,.693,0,1.393-0.72l0.693-.681c0.7-.683,1.4-0.683,2.795-1.4,2.094-2.084,4.881-4.168,7.675-6.975a52.181,52.181,0,0,0,8.368-7.695l36.292-36.272,25.119-25.129,334.265-333.546,16.754-16.753-0.691-.72c-0.712,0-.712,0-0.712-0.683l-0.691-.72c-4.89-4.888-9.078-8.376-11.172-9.059h0Z" fill="#df6b57"/>
    <path d="M509.076,651.169C502.795,659.547,500,675.58,500,698.625v598.752l343.332-249.136-0.691-.683-16.051-20.922L541.863,654.657l-18.838-18.838,0.7-.72,1.393-.644V633.7h-0.693c-4.188,3.524-9.086,9.1-15.35,17.471h0Z" fill="#f8deda"/>
  </g>
</svg>
