<svg
    data-name="pencil"
    xmlns="http://www.w3.org/2000/svg"
    viewBox="0 0 1000 1000"
>
    <path fill="currentColor" d="M239.525 915.539l60.046-60.046-155.065-155.065-60.046 60.046v70.604h 84.461v84.461h70.604z M584.626 303.201c0-8.579-5.939-14.516-14.516-14.516-3.96 0-7.918 1.32-11.217 4.619l-357.637 357.637c-3.299 3.299-4.619 7.259-4.619 11.217 0 8.579 5.939 14.516 14.516 14.516 3.96 0 7.918-1.32 11.217-4.619l357.637-357.637c3.299-3.299 4.619-7.259 4.619-11.217zM548.994 176.509l274.497 274.497-548.994 548.994h-274.497v-274.497z M999.67 239.855c0 22.435-9.238 44.21-24.415 59.387l-109.535 109.535-274.497-274.497 109.535-108.875c15.177-15.836 36.952-25.074 59.387-25.074s44.210 9.238 60.046 25.074l155.065 154.404c15.177 15.836 24.415 37.611 24.415 60.046z" />
</svg>